Sprint_08550001_forces_filt100Hz.mot
version=1
nRows=28
nColumns=19
inDegrees=yes
endheader
time	R_ground_force_vx	R_ground_force_vy	R_ground_force_vz	R_ground_force_px	R_ground_force_py	R_ground_force_pz	R_ground_torque_x	R_ground_torque_y	R_ground_torque_z	L_ground_force_vx	L_ground_force_vy	L_ground_force_vz	L_ground_force_px	L_ground_force_py	L_ground_force_pz	L_ground_torque_x	L_ground_torque_y	L_ground_torque_z	
0.597000	  0.000000	  0.000000	  0.000000	  0.162946	  0.000000	 -0.190286	  0.000000	  0.000000	  0.000000	  0.000000	  0.000000	  0.000000	  1.454361	  0.000000	 -0.408627	  0.000000	  0.000000	  0.000000
0.597500	  0.000000	  0.000000	  0.000000	  0.162472	  0.000000	 -0.190202	  0.000000	  0.000000	  0.000000	  0.000000	  0.000000	  0.000000	  1.454593	  0.000000	 -0.408799	  0.000000	  0.000000	  0.000000
0.598000	  0.000000	  0.000000	  0.000000	  0.161999	  0.000000	 -0.190117	  0.000000	  0.000000	  0.000000	  0.000000	  0.000000	  0.000000	  1.454825	  0.000000	 -0.408971	  0.000000	  0.000000	  0.000000
0.598500	  0.000000	  0.000000	  0.000000	  0.161525	  0.000000	 -0.190033	  0.000000	  0.000000	  0.000000	  0.000000	  0.000000	  0.000000	  1.455057	  0.000000	 -0.409144	  0.000000	  0.000000	  0.000000
0.599000	  0.000000	  0.000000	  0.000000	  0.161051	  0.000000	 -0.189949	  0.000000	  0.000000	  0.000000	  0.000000	  0.000000	  0.000000	  1.455289	  0.000000	 -0.409316	  0.000000	  0.000000	  0.000000
0.599500	  0.000000	  0.000000	  0.000000	  0.160577	  0.000000	 -0.189865	  0.000000	  0.000000	  0.000000	  0.000000	  0.000000	  0.000000	  1.455521	  0.000000	 -0.409488	  0.000000	  0.000000	  0.000000
0.600000	  0.000000	  0.000000	  0.000000	  0.160103	  0.000000	 -0.189781	  0.000000	  0.000000	  0.000000	  0.000000	  0.000000	  0.000000	  1.455753	  0.000000	 -0.409661	  0.000000	  0.000000	  0.000000
0.600500	  0.000000	  0.000000	  0.000000	  0.160116	  0.000000	 -0.189832	  0.000000	  0.000000	  0.000000	  0.000000	  0.000000	  0.000000	  1.455628	  0.000000	 -0.409848	  0.000000	  0.000000	  0.000000
0.601000	  0.000000	  0.000000	  0.000000	  0.160129	  0.000000	 -0.189882	  0.000000	  0.000000	  0.000000	  0.000000	  0.000000	  0.000000	  1.455504	  0.000000	 -0.410035	  0.000000	  0.000000	  0.000000
0.601500	  0.000000	  0.000000	  0.000000	  0.160142	  0.000000	 -0.189933	  0.000000	  0.000000	  0.000000	  0.000000	  0.000000	  0.000000	  1.455379	  0.000000	 -0.410222	  0.000000	  0.000000	  0.000000
0.602000	  0.000000	  0.000000	  0.000000	  0.160154	  0.000000	 -0.189984	  0.000000	  0.000000	  0.000000	  0.000000	  0.000000	  0.000000	  1.455255	  0.000000	 -0.410409	  0.000000	  0.000000	  0.000000
0.602500	  0.000000	  0.000000	  0.000000	  0.160167	  0.000000	 -0.190035	  0.000000	  0.000000	  0.000000	  0.000000	  0.000000	  0.000000	  1.455130	  0.000000	 -0.410597	  0.000000	  0.000000	  0.000000
0.603000	  0.000000	  0.000000	  0.000000	  0.160180	  0.000000	 -0.190085	  0.000000	  0.000000	  0.000000	  0.000000	  0.000000	  0.000000	  1.455006	  0.000000	 -0.410784	  0.000000	  0.000000	  0.000000
0.603500	  0.000000	  0.000000	  0.000000	  0.160193	  0.000000	 -0.190136	  0.000000	  0.000000	  0.000000	  0.000000	  0.000000	  0.000000	  1.454881	  0.000000	 -0.410971	  0.000000	  0.000000	  0.000000
0.604000	  0.000000	  0.000000	  0.000000	  0.160206	  0.000000	 -0.190187	  0.000000	  0.000000	  0.000000	  0.000000	  0.000000	  0.000000	  1.454757	  0.000000	 -0.411158	  0.000000	  0.000000	  0.000000
0.604500	  0.000000	  0.000000	  0.000000	  0.160219	  0.000000	 -0.190238	  0.000000	  0.000000	  0.000000	  0.000000	  0.000000	  0.000000	  1.454632	  0.000000	 -0.411345	  0.000000	  0.000000	  0.000000
0.605000	  0.000000	  0.000000	  0.000000	  0.160232	  0.000000	 -0.190288	  0.000000	  0.000000	  0.000000	  0.000000	  0.000000	  0.000000	  1.454508	  0.000000	 -0.411532	  0.000000	  0.000000	  0.000000
0.605500	  0.000000	  0.000000	  0.000000	  0.160941	  0.000000	 -0.190302	  0.000000	  0.000000	  0.000000	  0.000000	  0.000000	  0.000000	  1.454089	  0.000000	 -0.411780	  0.000000	  0.000000	  0.000000
0.606000	  0.000000	  0.000000	  0.000000	  0.161650	  0.000000	 -0.190316	  0.000000	  0.000000	  0.000000	  0.000000	  0.000000	  0.000000	  1.453670	  0.000000	 -0.412027	  0.000000	  0.000000	  0.000000
0.606500	  0.000000	  0.000000	  0.000000	  0.162359	  0.000000	 -0.190330	  0.000000	  0.000000	  0.000000	  0.000000	  0.000000	  0.000000	  1.453251	  0.000000	 -0.412275	  0.000000	  0.000000	  0.000000
0.607000	  0.000000	  0.000000	  0.000000	  0.163068	  0.000000	 -0.190343	  0.000000	  0.000000	  0.000000	  0.000000	  0.000000	  0.000000	  1.452832	  0.000000	 -0.412522	  0.000000	  0.000000	  0.000000
0.607500	  0.000000	  0.000000	  0.000000	  0.163777	  0.000000	 -0.190357	  0.000000	  0.000000	  0.000000	  0.000000	  0.000000	  0.000000	  1.452413	  0.000000	 -0.412770	  0.000000	  0.000000	  0.000000
0.608000	  0.000000	  0.000000	  0.000000	  0.164487	  0.000000	 -0.190371	  0.000000	  0.000000	  0.000000	  0.000000	  0.000000	  0.000000	  1.451995	  0.000000	 -0.413017	  0.000000	  0.000000	  0.000000
0.608500	  0.000000	  0.000000	  0.000000	  0.165196	  0.000000	 -0.190385	  0.000000	  0.000000	  0.000000	  0.000000	  0.000000	  0.000000	  1.451576	  0.000000	 -0.413264	  0.000000	  0.000000	  0.000000
0.609000	  0.000000	  0.000000	  0.000000	  0.165905	  0.000000	 -0.190398	  0.000000	  0.000000	  0.000000	  0.000000	  0.000000	  0.000000	  1.451157	  0.000000	 -0.413512	  0.000000	  0.000000	  0.000000
0.609500	  0.000000	  0.000000	  0.000000	  0.166614	  0.000000	 -0.190412	  0.000000	  0.000000	  0.000000	  0.000000	  0.000000	  0.000000	  1.450738	  0.000000	 -0.413759	  0.000000	  0.000000	  0.000000
0.610000	  0.000000	  0.000000	  0.000000	  0.167323	  0.000000	 -0.190426	  0.000000	  0.000000	  0.000000	  0.000000	  0.000000	  0.000000	  1.450319	  0.000000	 -0.414007	  0.000000	  0.000000	  0.000000
0.610500	  0.000000	  0.000000	  0.000000	  0.167951	  0.000000	 -0.190477	  0.000000	  0.000000	  0.000000	  0.000000	  0.000000	  0.000000	  1.449616	  0.000000	 -0.414294	  0.000000	  0.000000	  0.000000
